<?xml version="1.0" encoding="iso-8859-1"?>
<!-- Uploaded to: SVG Repo, www.svgrepo.com, Generator: SVG Repo Mixer Tools -->
<svg height="800px" width="800px" version="1.1" id="Layer_1" xmlns="http://www.w3.org/2000/svg" xmlns:xlink="http://www.w3.org/1999/xlink" 
	 viewBox="0 0 512 512" xml:space="preserve">
<path style="fill:#E6E6E6;" d="M35.071,503.742L35.071,503.742c-9.121,0-14.305-7.395-11.578-16.516L161.779,24.774
	c2.727-9.121,12.333-16.516,21.454-16.516l0,0c9.121,0,14.305,7.395,11.578,16.516L56.526,487.226
	C53.798,496.347,44.193,503.742,35.071,503.742z"/>
<polygon style="fill:#CECECE;" points="87.694,272.516 125.998,254.899 185.26,56.705 152.228,56.705 "/>
<path style="fill:#FF705B;" d="M342.781,122.77H132.476l19.755-66.065h177.251c18.255,0,28.629,14.798,23.17,33.054L342.781,122.77z
	"/>
<polygon style="fill:#E6E6E6;" points="323.026,188.834 112.72,188.834 132.476,122.77 342.781,122.77 "/>
<polygon style="fill:#42A555;" points="303.271,254.899 92.966,254.899 112.72,188.834 323.026,188.834 "/>
<polygon style="fill:#F44A46;" points="165.505,122.77 185.26,56.705 152.228,56.705 150.253,63.312 132.472,122.77 "/>
<polygon style="fill:#D1D1D1;" points="112.721,188.834 145.754,188.834 165.508,122.77 132.476,122.77 "/>
<polygon style="fill:#427451;" points="125.998,254.899 145.754,188.834 112.721,188.834 92.966,254.899 "/>
<polygon style="fill:#FF705B;" points="469.469,188.834 323.026,188.834 342.781,122.77 489.224,122.77 "/>
<polygon style="fill:#E6E6E6;" points="449.714,254.899 303.271,254.899 323.026,188.834 469.469,188.834 "/>
<path style="fill:#42A555;" d="M429.959,320.963H316.57c-18.255,0-28.629-14.798-23.17-33.054l9.871-33.01h146.443L429.959,320.963z
	"/>
<polygon style="fill:#F44A46;" points="342.781,122.77 323.026,188.834 347.961,188.834 367.716,122.77 "/>
<polygon style="fill:#D1D1D1;" points="323.026,188.834 303.271,254.899 328.206,254.899 347.961,188.834 "/>
<path style="fill:#427451;" d="M318.335,287.909l9.871-33.01h-24.935l-9.871,33.01c-5.459,18.255,4.915,33.054,23.17,33.054h24.935
	C323.249,320.963,312.876,306.165,318.335,287.909z"/>
<path d="M495.847,117.838c-1.559-2.093-4.014-3.326-6.623-3.326H353.87l6.695-22.387c3.436-11.491,1.854-22.851-4.34-31.169
	c-6.007-8.065-15.504-12.508-26.742-12.508H196.351l6.372-21.308c2.094-7.004,1.069-14.012-2.814-19.226
	C196.163,2.885,190.085,0,183.234,0c-12.71,0-25.61,9.843-29.367,22.408l-9.547,31.929c0,0.001,0,0.001,0,0.001l-19.755,66.066l0,0
	l-25.064,83.818l-14.446,48.31c0,0.001-0.001,0.003-0.001,0.004L15.582,484.861c-2.094,7.004-1.069,14.012,2.814,19.226
	C22.141,509.115,28.22,512,35.071,512c12.71,0,25.61-9.842,29.367-22.408l52.626-175.993c1.307-4.37-1.176-8.972-5.546-10.277
	s-8.972,1.177-10.277,5.546L48.615,484.861c-1.692,5.66-8.021,10.623-13.543,10.623c-0.929,0-2.611-0.164-3.429-1.263
	c-0.734-0.987-0.821-2.674-0.237-4.629l67.71-226.435h193.067l-6.695,22.387c-3.436,11.49-1.854,22.851,4.34,31.168
	c6.009,8.066,15.505,12.509,26.742,12.509h113.389c3.649,0,6.866-2.396,7.912-5.893l19.754-66.062c0-0.001,0-0.001,0-0.001
	l19.755-66.066c0-0.001,0-0.002,0.001-0.002l19.754-66.062C497.883,122.636,497.406,119.93,495.847,117.838z M183.234,16.516
	c0.929,0,2.611,0.164,3.429,1.263c0.734,0.987,0.821,2.675,0.237,4.629l-7.787,26.039h-15.794l6.372-21.308
	C171.383,21.481,177.712,16.516,183.234,16.516z M109.413,228.72l9.458-31.627h165.003c4.561,0,8.258-3.697,8.258-8.258
	s-3.697-8.258-8.258-8.258H123.809l14.816-49.548H300.39c4.561,0,8.258-3.697,8.258-8.258c0-4.561-3.697-8.258-8.258-8.258H143.565
	l14.816-49.548h171.102c5.89,0,10.682,2.08,13.495,5.858c3.092,4.151,3.717,10.036,1.764,16.572l-9.871,33.01
	c0,0.001,0,0.002-0.001,0.003l-19.753,66.059c0,0.001-0.001,0.002-0.001,0.003l-17.994,60.172H104.055L109.413,228.72z
	 M463.319,180.576H355.249c-4.561,0-8.258,3.697-8.258,8.258s3.697,8.258,8.258,8.258h103.132l-14.817,49.548H335.493
	c-4.561,0-8.258,3.697-8.258,8.258c0,4.561,3.697,8.258,8.258,8.258h103.132l-14.816,49.548H316.57
	c-5.889,0-10.682-2.08-13.495-5.858c-3.092-4.152-3.717-10.036-1.764-16.572l9.87-33.009c0-0.001,0-0.001,0-0.001l19.755-66.066
	c0-0.001,0-0.002,0.001-0.003l17.994-60.168h129.205L463.319,180.576z"/>
</svg>